<svg xmlns="http://www.w3.org/2000/svg" viewBox="0 0 256 256" height="256" width="256"><path style="fill:#9feaf9" d="M192 127.973a64 64 0 0 1-64 64 64 64 0 0 1-64-64 64 64 0 0 1 128 0"/><path d="M17.147 192A128 128 0 1 0 64 17.147 128 128 0 0 0 17.147 192m166.277-96A64 64 0 1 1 96 72.576 64 64 0 0 1 183.424 96" style="fill:none"/><path d="M128 64h110.832a127.968 127.968 0 0 0-221.675.016L72.571 160l.053-.011A63.92 63.92 0 0 1 128 64" style="fill:#6c637a"/><path style="fill:#00a8cf" d="M178.667 128A50.667 50.667 0 0 1 128 178.667 50.667 50.667 0 0 1 77.333 128a50.667 50.667 0 0 1 101.333 0"/><path d="M183.419 160.016 128.005 256A127.968 127.968 0 0 0 238.827 64.016H127.995l-.016.053a63.92 63.92 0 0 1 55.44 95.947" style="fill:#49485a"/><path d="M72.581 160.016 17.163 64.032A127.968 127.968 0 0 0 128.016 256l55.413-95.984-.037-.037a63.92 63.92 0 0 1-110.811.037" style="fill:#2b2e3a"/></svg>